Coordinates
version=1
nRows=15
nColumns=42
inDegrees=yes

Units are S.I. units (second, meters, Newtons, ...)
If the header above contains a line with 'inDegrees', this indicates whether rotational values are in degrees (yes) or radians (no).

endheader
time	pelvis_tilt	pelvis_list	pelvis_rotation	pelvis_tx	pelvis_ty	pelvis_tz	hip_flexion_r	hip_adduction_r	hip_rotation_r	knee_angle_r	knee_adduction_r	knee_angle_r_beta	ankle_angle_r	subtalar_angle_r	mtp_angle_r	hip_flexion_l	hip_adduction_l	hip_rotation_l	knee_angle_l	knee_adduction_l	knee_angle_l_beta	ankle_angle_l	subtalar_angle_l	mtp_angle_l	lumbar_extension	lumbar_bending	lumbar_rotation	arm_flex_r	arm_add_r	arm_rot_r	elbow_flex_r	pro_sup_r	wrist_flex_r	wrist_dev_r	arm_flex_l	arm_add_l	arm_rot_l	elbow_flex_l	pro_sup_l	wrist_flex_l	wrist_dev_l
      1.46000000	      1.68038569	     -5.41089652	      4.44875561	     -0.64421387	      0.95624193	      0.30896547	     13.66538786	      1.96497286	    -10.85970645	      6.49526418	      5.66678898	      0.11336375	     -2.44023642	      6.86671330	     -7.55102126	    -17.74866644	     -7.02562014	     -6.97788747	     16.65254017	      0.65162551	      0.29064165	     11.22387457	     18.65679800	     -7.55102126	     -4.37284582	     10.67572163	     -9.17997766	    -12.78161711	    -11.48279143	      2.23737447	     22.61193679	     90.00000001	      0.00000000	      0.00000000	      3.42956632	    -18.45952589	     19.41330128	     44.37082539	     90.00000001	      0.00000000	      0.00000000
      1.47000000	      1.70763164	     -5.43468905	      4.36758458	     -0.63263689	      0.95846710	      0.30967451	     12.92891556	      1.99268064	    -10.36121921	      6.58661121	      5.91575879	      0.11495805	     -2.07828179	      6.78161085	     -7.55016802	    -17.06431101	     -7.32011327	     -6.99252985	     18.93440298	      0.64774390	      0.33046767	      8.86323463	     18.08019505	     -7.55016802	     -4.36964660	     10.83718432	     -8.91182976	    -12.64674124	    -11.55611433	      2.13943593	     22.56871648	     90.00000001	      0.00000000	      0.00000000	      2.73025867	    -18.17991701	     19.45684485	     44.20222111	     90.00000001	      0.00000000	      0.00000000
      1.48000000	      1.69129651	     -5.42327589	      4.19383813	     -0.62127487	      0.96071372	      0.31057622	     12.21448287	      2.05672243	     -9.83666417	      6.59742409	      6.08221589	      0.11514677	     -1.72283772	      6.82254725	     -7.54938701	    -16.12233812	     -7.63927083	     -6.88198548	     21.55074085	      0.83181060	      0.37613138	      6.35964607	     17.39867489	     -7.54938701	     -4.36013913	     10.93181401	     -8.55476827	    -12.44225372	    -11.61015146	      2.04812979	     22.53155360	     90.00000001	      0.00000000	      0.00000000	      2.02427433	    -17.89313205	     19.48060609	     44.02325206	     90.00000001	      0.00000000	      0.00000000
      1.49000000	      1.21599128	     -5.66205283	      3.96172378	     -0.61015528	      0.96242915	      0.31178357	     11.86324818	      2.47652644	     -8.81064784	      6.21764101	      6.17841437	      0.10851831	     -1.78444142	      5.89655686	     -7.54690947	    -14.29826769	     -8.20505708	     -7.03275779	     24.75121023	      0.81562364	      0.43199011	      3.85185723	     16.48588616	     -7.54690947	     -3.81729458	     11.24383039	     -8.15022447	    -12.19402436	    -11.61214165	      1.48646718	     22.27445597	     90.00000001	      0.00000000	      0.00000000	      1.24274085	    -17.56053065	     19.34308538	     43.77458315	     90.00000001	      0.00000000	      0.00000000
      1.50000000	      1.16487694	     -5.64103933	      3.75042185	     -0.59904604	      0.96447286	      0.31280880	     11.04214803	      2.61286435	     -8.24700049	      5.90535557	      6.26442706	      0.10306790	     -1.50003218	      5.83275524	     -7.54517706	    -12.92248185	     -8.50295555	     -6.89700438	     27.81327250	      0.89066741	      0.48543318	      0.92820665	     15.32735097	     -7.54517706	     -3.79845950	     11.29528325	     -7.72425817	    -11.95679334	    -11.65559345	      1.22932077	     22.29838117	     90.00000001	      0.00000000	      0.00000000	      0.53323206	    -17.33006803	     19.37467349	     43.58755051	     90.00000001	      0.00000000	      0.00000000
      1.51000000	      1.33808968	     -5.48071773	      3.59767533	     -0.58808290	      0.96655004	      0.31367914	      9.98352407	      2.58463410	     -8.01343950	      5.63712724	      6.35477557	      0.09838643	     -0.96365838	      6.12855306	     -7.54439731	    -11.66018209	     -8.62736702	     -6.73805678	     30.91605468	      0.84330363	      0.53958695	     -1.85561242	     14.19166754	     -7.54439731	     -4.05627286	     11.19914355	     -7.32577291	    -11.71489058	    -11.72899005	      1.15305491	     22.51159765	     90.00000001	      0.00000000	      0.00000000	     -0.11014772	    -17.12492150	     19.39526652	     43.39862920	     90.00000001	      0.00000000	      0.00000000
      1.52000000	      1.27282122	     -5.47076992	      3.41039994	     -0.57734979	      0.96813277	      0.31464125	      9.17077579	      2.73804453	     -7.78910800	      5.26800066	      6.38023147	      0.09194396	     -0.57724019	      6.49107314	     -7.54347683	     -9.97351763	     -8.88683376	     -6.53610529	     34.16548004	      0.78630912	      0.59630012	     -4.49085419	     12.42881884	     -7.54347683	     -4.05126583	     11.24181395	     -6.86388770	    -11.49063873	    -11.84129276	      1.07627416	     22.67854934	     90.00000001	      0.00000000	      0.00000000	     -0.76665674	    -16.90364195	     19.37758402	     43.25530673	     90.00000001	      0.00000000	      0.00000000
      1.53000000	      1.19810282	     -5.44174044	      3.20602127	     -0.56691028	      0.96946811	      0.31571203	      8.40807301	      2.89291677	     -7.64569406	      4.94412630	      6.36354040	      0.08629128	     -0.20642908	      6.84930866	     -7.54247997	     -8.20195523	     -9.13493644	     -6.22978460	     37.39298009	      0.81287781	      0.65263062	     -6.56265970	     10.34658121	     -7.54247997	     -4.06293959	     11.23841920	     -6.41983134	    -11.21314036	    -11.96504277	      1.02342072	     22.94820758	     90.00000001	      0.00000000	      0.00000000	     -1.39737778	    -16.71746346	     19.30437541	     43.07391006	     90.00000001	      0.00000000	      0.00000000
      1.54000000	      1.26457954	     -5.34846499	      3.05347632	     -0.55669164	      0.97072506	      0.31670439	      7.51327522	      2.96746926	     -7.57086576	      4.64682670	      6.35359138	      0.08110243	      0.24767190	      7.28358071	     -7.54162407	     -6.53126124	     -9.27534644	     -6.03695263	     40.50058510	      0.67051973	      0.70686856	     -7.93315319	      8.32615220	     -7.54162407	     -4.25779394	     11.15489450	     -6.00476175	    -10.88778945	    -12.06571487	      1.02392651	     23.30574107	     90.00000001	      0.00000000	      0.00000000	     -1.96233329	    -16.52451356	     19.22335647	     42.87531718	     90.00000001	      0.00000000	      0.00000000
      1.55000000	      1.05905887	     -5.34001908	      2.85125302	     -0.54692053	      0.97153799	      0.31792247	      7.05208834	      3.13380049	     -7.58497325	      4.55329268	      6.29181781	      0.07946995	      0.56553293	      7.74048861	     -7.53995188	     -4.52260259	     -9.55444525	     -5.43877975	     43.53629582	      0.95083607	      0.75985171	     -8.93363270	      5.34571244	     -7.53995188	     -4.19123319	     11.11919848	     -5.55412436	    -10.56659580	    -12.21393464	      1.19482453	     23.68484236	     90.00000001	      0.00000000	      0.00000000	     -2.51682771	    -16.33256648	     19.00650006	     42.61944707	     90.00000001	      0.00000000	      0.00000000
      1.56000000	      1.19486567	     -5.20158734	      2.67534980	     -0.53707575	      0.97252685	      0.31889142	      6.15300298	      3.11497931	     -7.60688137	      4.36242327	      6.31658470	      0.07613865	      1.11433150	      8.35882501	     -7.53869139	     -2.90134439	     -9.60243499	     -5.56691325	     46.28650985	      0.58149666	      0.80785200	     -9.22391393	      3.40723089	     -7.53869139	     -4.51033425	     10.95786024	     -5.11936206	    -10.16938504	    -12.38535131	      1.37364431	     24.14641832	     90.00000001	      0.00000000	      0.00000000	     -3.00148520	    -16.18849887	     18.88638687	     42.36409958	     90.00000001	      0.00000000	      0.00000000
      1.57000000	      1.48510859	     -4.99924292	      2.58048803	     -0.52717469	      0.97355157	      0.31975985	      5.09535501	      2.99655280	     -7.58142175	      4.22543628	      6.39287351	      0.07374778	      1.72654173	      8.83430010	     -7.53797400	     -1.47091821	     -9.57072697	     -5.99861075	     48.75333404	     -0.05859262	      0.85090620	     -8.74115011	      1.98404198	     -7.53797400	     -4.96304232	     10.70187970	     -4.73612712	     -9.76965455	    -12.50527532	      1.49227665	     24.56242120	     90.00000001	      0.00000000	      0.00000000	     -3.44324982	    -16.04017378	     18.84031819	     42.04544451	     90.00000001	      0.00000000	      0.00000000
      1.58000000	      1.47120415	     -4.89621494	      2.36495946	     -0.51776797	      0.97420905	      0.32092023	      4.51406770	      3.02318317	     -7.45786963	      4.26170345	      6.35590750	      0.07438076	      2.26812392	      9.36903407	     -7.53662872	      0.33165506	     -9.69257806	     -6.38109087	     51.09394971	     -0.49619316	      0.89175765	     -8.26120265	      0.32360709	     -7.53662872	     -5.13502831	     10.51316527	     -4.28018896	     -9.36036759	    -12.69962125	      1.89010824	     25.08699545	     90.00000001	      0.00000000	      0.00000000	     -3.85901249	    -15.88197360	     18.69620695	     41.64154803	     90.00000001	      0.00000000	      0.00000000
      1.59000000	      1.85237299	     -4.59170538	      2.22492556	     -0.50833964	      0.97534382	      0.32188853	      3.49914696	      2.78213262	     -7.35684286	      4.33190875	      6.42959767	      0.07560607	      2.74865815	      9.59224272	     -7.53619380	      1.57758733	     -9.55681820	     -6.78911748	     52.92743588	     -0.99433944	      0.92375802	     -7.30355495	     -0.33025974	     -7.53619380	     -5.75042043	     10.10051657	     -3.88596068	     -8.79403487	    -12.77728809	      1.96128527	     25.48156253	     90.00000001	      0.00000000	      0.00000000	     -4.20473935	    -15.80119794	     18.69665120	     41.28465031	     90.00000001	      0.00000000	      0.00000000
      1.60000000	      2.00015698	     -4.37141701	      2.07893604	     -0.49876717	      0.97616333	      0.32283511	      2.66193231	      2.66484842	     -7.01923368	      4.22101080	      6.41991284	      0.07367054	      3.46152870	      9.85768713	     -7.53559785	      3.07849775	     -9.46643578	     -7.53926211	     54.52613382	     -1.78469547	      0.95166056	     -5.94197454	     -1.15660358	     -7.53559785	     -6.04318791	      9.76323049	     -3.54735510	     -8.31430401	    -12.92995221	      2.11155471	     25.94979208	     90.00000001	      0.00000000	      0.00000000	     -4.60686472	    -15.68080442	     18.69390223	     40.72610808	     90.00000001	      0.00000000	      0.00000000
